<svg width="125" height="28" viewBox="0 0 125 28" fill="none" xmlns="http://www.w3.org/2000/svg">
<path d="M23.436 8.488L18.9 24H14.672L11.844 13.164L9.016 24H4.76L0.196 8.488H4.172L6.916 20.304L9.884 8.488H14.028L16.94 20.276L19.684 8.488H23.436ZM25.669 16.188C25.669 14.62 25.977 13.2293 26.593 12.016C27.2277 10.8027 28.077 9.86933 29.141 9.216C30.2237 8.56267 31.4277 8.236 32.753 8.236C33.9103 8.236 34.9183 8.46933 35.777 8.936C36.6543 9.40267 37.3543 9.99067 37.877 10.7V8.488H41.825V24H37.877V21.732C37.373 22.46 36.673 23.0667 35.777 23.552C34.8997 24.0187 33.8823 24.252 32.725 24.252C31.4183 24.252 30.2237 23.916 29.141 23.244C28.077 22.572 27.2277 21.6293 26.593 20.416C25.977 19.184 25.669 17.7747 25.669 16.188ZM37.877 16.244C37.877 15.292 37.6903 14.48 37.317 13.808C36.9437 13.1173 36.4397 12.5947 35.805 12.24C35.1703 11.8667 34.489 11.68 33.761 11.68C33.033 11.68 32.361 11.8573 31.745 12.212C31.129 12.5667 30.625 13.0893 30.233 13.78C29.8597 14.452 29.673 15.2547 29.673 16.188C29.673 17.1213 29.8597 17.9427 30.233 18.652C30.625 19.3427 31.129 19.8747 31.745 20.248C32.3797 20.6213 33.0517 20.808 33.761 20.808C34.489 20.808 35.1703 20.6307 35.805 20.276C36.4397 19.9027 36.9437 19.38 37.317 18.708C37.6903 18.0173 37.877 17.196 37.877 16.244ZM50.3576 20.78H57.2736V24H45.9056V20.836L52.6816 11.708H45.9336V8.488H57.1896V11.652L50.3576 20.78ZM120.966 24.196C120.257 24.196 119.669 23.9813 119.202 23.552C118.754 23.104 118.53 22.5533 118.53 21.9C118.53 21.2467 118.754 20.7053 119.202 20.276C119.669 19.828 120.257 19.604 120.966 19.604C121.657 19.604 122.226 19.828 122.674 20.276C123.122 20.7053 123.346 21.2467 123.346 21.9C123.346 22.5533 123.122 23.104 122.674 23.552C122.226 23.9813 121.657 24.196 120.966 24.196Z" fill="#3B3949"/>
<path d="M82.9327 8.488L78.3967 24H74.1687L71.3407 13.164L68.5127 24H64.2567L59.6927 8.488H63.6687L66.4127 20.304L69.3807 8.488H73.5247L76.4367 20.276L79.1807 8.488H82.9327ZM100.594 15.908C100.594 16.468 100.556 16.972 100.482 17.42H89.1417C89.2351 18.54 89.6271 19.4173 90.3177 20.052C91.0084 20.6867 91.8577 21.004 92.8657 21.004C94.3217 21.004 95.3577 20.3787 95.9737 19.128H100.202C99.7537 20.6213 98.8951 21.8533 97.6257 22.824C96.3564 23.776 94.7977 24.252 92.9497 24.252C91.4564 24.252 90.1124 23.9253 88.9177 23.272C87.7417 22.6 86.8177 21.6573 86.1457 20.444C85.4924 19.2307 85.1657 17.8307 85.1657 16.244C85.1657 14.6387 85.4924 13.2293 86.1457 12.016C86.7991 10.8027 87.7137 9.86933 88.8897 9.216C90.0657 8.56267 91.4191 8.236 92.9497 8.236C94.4244 8.236 95.7404 8.55333 96.8977 9.188C98.0737 9.82267 98.9791 10.728 99.6137 11.904C100.267 13.0613 100.594 14.396 100.594 15.908ZM96.5337 14.788C96.5151 13.78 96.1511 12.9773 95.4417 12.38C94.7324 11.764 93.8644 11.456 92.8377 11.456C91.8671 11.456 91.0457 11.7547 90.3737 12.352C89.7204 12.9307 89.3191 13.7427 89.1697 14.788H96.5337ZM108.159 20.78H115.075V24H103.707V20.836L110.483 11.708H103.735V8.488H114.991V11.652L108.159 20.78Z" fill="#FF5F26"/>
</svg>
